<svg width="993" height="1803" viewBox="0 0 993 1803" fill="none" xmlns="http://www.w3.org/2000/svg">
<path d="M1.5 1741.5V61C1.5 27.8629 28.3629 1 61.5 1H522C533.046 1 542 9.95428 542 21V771.5C542 777.023 546.477 781.5 552 781.5H927.358C930.01 781.5 932.554 782.554 934.429 784.429L989.071 839.071C990.946 840.946 992 843.49 992 846.142V1741.5C992 1774.64 965.137 1801.5 932 1801.5H61.5C28.3629 1801.5 1.5 1774.64 1.5 1741.5Z" stroke="white" stroke-width="2"/>
<path d="M541.5 61.5H836.858C839.51 61.5 842.054 62.5536 843.929 64.4289L898.071 118.571C899.946 120.446 902.49 121.5 905.142 121.5H957.358C960.01 121.5 962.554 122.554 964.429 124.429L988.571 148.571C990.446 150.446 991.5 152.99 991.5 155.642V731C991.5 742.046 982.546 751 971.5 751H921C909.954 751 901 759.954 901 771V781.5" stroke="#FFF8F3" stroke-width="2"/>
</svg>