<svg width="159" height="31" viewBox="0 0 159 31" fill="none" xmlns="http://www.w3.org/2000/svg">
<path fill-rule="evenodd" clip-rule="evenodd" d="M54.0972 2.22373e-06L28.6607 30.3707L45.8849 30.3707L71.3214 3.72952e-06L54.0972 2.22373e-06Z" fill="#FFF8F3"/>
<path fill-rule="evenodd" clip-rule="evenodd" d="M83.0972 2.22373e-06L57.6607 30.3707L74.8849 30.3707L100.321 3.72952e-06L83.0972 2.22373e-06Z" fill="#FFF8F3"/>
<path fill-rule="evenodd" clip-rule="evenodd" d="M112.097 2.22373e-06L86.6607 30.3707L103.885 30.3707L129.321 3.72952e-06L112.097 2.22373e-06Z" fill="#FFF8F3"/>
<path fill-rule="evenodd" clip-rule="evenodd" d="M141.437 2.22373e-06L116.001 30.3707L133.225 30.3707L158.661 3.72952e-06L141.437 2.22373e-06Z" fill="#FFF8F3"/>
<path fill-rule="evenodd" clip-rule="evenodd" d="M17.7525 9.17453L25.4365 -1.50579e-06L42.6607 0L17.7525 29.7399L17.7525 9.17453ZM-1.14441e-05 30.3707L17.2242 30.3707L17.2242 30.3707L-1.14441e-05 30.3707Z" fill="#FFF8F3"/>
</svg>
