<svg width="130" height="130" viewBox="0 0 130 130" fill="none" xmlns="http://www.w3.org/2000/svg">
<path d="M83.3827 56.9957C83.3827 53.3486 80.4102 50.3827 76.755 50.3827H49.5654V56.4627C47.119 57.435 45.3827 59.8202 45.3827 62.6038C45.3827 65.3875 47.119 67.7727 49.5654 68.745V74.7746H76.755C76.8313 74.7746 76.9049 74.7664 76.9799 74.7637C76.5246 76.7981 74.7038 78.3239 72.5287 78.3239H52.0104C49.4945 78.3239 47.4475 76.2813 47.4475 73.7697H45.3827C45.3827 77.4155 48.3565 80.3827 52.0104 80.3827H72.5287C75.9945 80.3827 78.8429 77.7146 79.1291 74.3286C81.6123 73.3726 83.3827 70.9724 83.3827 68.1616C83.3827 65.8158 82.1534 63.7515 80.3026 62.5793C82.1534 61.4058 83.3827 59.3415 83.3827 56.9957ZM49.5654 66.4441C48.2952 65.6349 47.4475 64.218 47.4475 62.6052C47.4475 60.9924 48.2938 59.5754 49.5654 58.7663V66.4441ZM51.6288 58.07C51.7555 58.0591 51.8823 58.051 52.0104 58.051H72.5287C74.6779 58.051 76.4783 59.5427 76.9621 61.5404C76.8926 61.5445 76.8245 61.5513 76.755 61.5513H51.6288V58.07ZM76.755 72.7171H51.6288V69.1978C51.7555 69.2046 51.8823 69.2168 52.0104 69.2168H72.5287C74.6779 69.2168 76.4783 70.7086 76.9621 72.7062C76.8926 72.7103 76.8245 72.7171 76.755 72.7171ZM81.3193 68.1629C81.3193 69.8818 80.3598 71.379 78.9479 72.1555C78.2228 69.2889 75.6251 67.1594 72.53 67.1594H52.0104C51.8823 67.1594 51.7555 67.1512 51.6288 67.1403V63.6087H76.7536C79.2722 63.6087 81.3193 65.6513 81.3193 68.1629ZM78.9465 60.9883C78.2214 58.1217 75.6238 55.9921 72.5287 55.9921H52.0104C51.8823 55.9921 51.7555 56.0044 51.6288 56.0112V52.4415H76.7536C79.2709 52.4415 81.3179 54.484 81.3179 56.9957C81.3193 58.7159 80.3598 60.2118 78.9465 60.9883Z" fill="#FFF8F3"/>
<path d="M64.3841 37.3827C48.9429 37.3827 36.3827 49.9446 36.3827 65.382C36.3827 80.8221 48.9429 93.3827 64.3841 93.3827C79.8225 93.3827 92.3827 80.8221 92.3827 65.382C92.3827 49.9446 79.8211 37.3827 64.3841 37.3827ZM64.3841 91.3175C50.0833 91.3175 38.4479 79.6845 38.4479 65.382C38.4479 51.0795 50.0833 39.4466 64.3841 39.4466C78.6835 39.4466 90.3175 51.0795 90.3175 65.382C90.3175 79.6845 78.6821 91.3175 64.3841 91.3175Z" fill="#FFF8F3"/>
<mask id="mask0" mask-type="alpha" maskUnits="userSpaceOnUse" x="0" y="0" width="130" height="130">
<path fill-rule="evenodd" clip-rule="evenodd" d="M40.8468 23.8446L23.8446 40.8468L47.6892 64.6914L23.8446 88.536L40.8468 105.538L64.6914 81.6936L88.5359 105.538L105.538 88.536L81.6936 64.6914L105.538 40.8469L88.5359 23.8446L64.6914 47.6892L40.8468 23.8446Z" fill="#C4C4C4"/>
</mask>
<g mask="url(#mask0)">
<circle cx="64.3987" cy="65.571" r="34.9807" stroke="#FFF8F3"/>
</g>
</svg>
